<svg id="Group_7" data-name="Group 7" xmlns="http://www.w3.org/2000/svg" width="319" height="7" viewBox="0 0 319 7">
  <rect id="Rectangle_1" data-name="Rectangle 1" width="7" height="7" transform="translate(7 7) rotate(180)" fill="#f173ac"/>
  <rect id="Rectangle_2" data-name="Rectangle 2" width="7" height="7" transform="translate(14 7) rotate(180)" fill="#ee3d8a"/>
  <rect id="Rectangle_3" data-name="Rectangle 3" width="6" height="7" transform="translate(20 7) rotate(180)" fill="#a3238e"/>
  <rect id="Rectangle_4" data-name="Rectangle 4" width="7" height="7" transform="translate(27 7) rotate(180)" fill="#6f2c91"/>
  <rect id="Rectangle_5" data-name="Rectangle 5" width="7" height="7" transform="translate(34 7) rotate(180)" fill="#d22333"/>
  <rect id="Rectangle_6" data-name="Rectangle 6" width="6" height="7" transform="translate(40 7) rotate(180)" fill="#f15a29"/>
  <rect id="Rectangle_7" data-name="Rectangle 7" width="7" height="7" transform="translate(47 7) rotate(180)" fill="#f7941d"/>
  <rect id="Rectangle_8" data-name="Rectangle 8" width="7" height="7" transform="translate(54 7) rotate(180)" fill="#fbb040"/>
  <g id="Group_5" data-name="Group 5" transform="translate(54.35)">
    <rect id="Rectangle_9" data-name="Rectangle 9" width="6" height="7" transform="translate(5.65 7) rotate(180)" fill="#6dcff6"/>
    <rect id="Rectangle_10" data-name="Rectangle 10" width="7" height="7" transform="translate(12.65 7) rotate(180)" fill="#14b1e7"/>
    <rect id="Rectangle_11" data-name="Rectangle 11" width="7" height="7" transform="translate(19.65 7) rotate(180)" fill="#0080c6"/>
    <rect id="Rectangle_12" data-name="Rectangle 12" width="6" height="7" transform="translate(25.65 7) rotate(180)" fill="#005baa"/>
    <rect id="Rectangle_13" data-name="Rectangle 13" width="8" height="7" transform="translate(33.65 7) rotate(180)" fill="#00a14b"/>
    <rect id="Rectangle_14" data-name="Rectangle 14" width="5" height="7" transform="translate(38.65 7) rotate(180)" fill="#8dc63f"/>
    <rect id="Rectangle_15" data-name="Rectangle 15" width="8" height="7" transform="translate(46.65 7) rotate(180)" fill="#d7df23"/>
    <rect id="Rectangle_16" data-name="Rectangle 16" width="7" height="7" transform="translate(53.65 7) rotate(180)" fill="#ffe600"/>
  </g>
  <g id="Group_6" data-name="Group 6" transform="translate(159.723)">
    <rect id="Rectangle_17" data-name="Rectangle 17" width="6" height="7" transform="translate(6.277 7) rotate(180)" fill="#6dcff6"/>
    <rect id="Rectangle_18" data-name="Rectangle 18" width="7" height="7" transform="translate(13.277 7) rotate(180)" fill="#14b1e7"/>
    <rect id="Rectangle_19" data-name="Rectangle 19" width="7" height="7" transform="translate(20.277 7) rotate(180)" fill="#0080c6"/>
    <rect id="Rectangle_20" data-name="Rectangle 20" width="7" height="7" transform="translate(27.277 7) rotate(180)" fill="#005baa"/>
    <rect id="Rectangle_21" data-name="Rectangle 21" width="6" height="7" transform="translate(33.277 7) rotate(180)" fill="#00a14b"/>
    <rect id="Rectangle_22" data-name="Rectangle 22" width="7" height="7" transform="translate(40.277 7) rotate(180)" fill="#8dc63f"/>
    <rect id="Rectangle_23" data-name="Rectangle 23" width="7" height="7" transform="translate(47.277 7) rotate(180)" fill="#d7df23"/>
    <rect id="Rectangle_24" data-name="Rectangle 24" width="6" height="7" transform="translate(53.277 7) rotate(180)" fill="#ffe600"/>
  </g>
  <rect id="Rectangle_25" data-name="Rectangle 25" width="6" height="7" transform="translate(273 7) rotate(180)" fill="#6dcff6"/>
  <rect id="Rectangle_26" data-name="Rectangle 26" width="8" height="7" transform="translate(281 7) rotate(180)" fill="#14b1e7"/>
  <rect id="Rectangle_27" data-name="Rectangle 27" width="6" height="7" transform="translate(287 7) rotate(180)" fill="#0080c6"/>
  <rect id="Rectangle_28" data-name="Rectangle 28" width="6" height="7" transform="translate(293 7) rotate(180)" fill="#005baa"/>
  <rect id="Rectangle_29" data-name="Rectangle 29" width="6" height="7" transform="translate(299 7) rotate(180)" fill="#00a14b"/>
  <rect id="Rectangle_30" data-name="Rectangle 30" width="8" height="7" transform="translate(307 7) rotate(180)" fill="#8dc63f"/>
  <rect id="Rectangle_31" data-name="Rectangle 31" width="6" height="7" transform="translate(313 7) rotate(180)" fill="#d7df23"/>
  <rect id="Rectangle_32" data-name="Rectangle 32" width="6" height="7" transform="translate(319 7) rotate(180)" fill="#ffe600"/>
  <rect id="Rectangle_33" data-name="Rectangle 33" width="5" height="7" transform="translate(113 7) rotate(180)" fill="#f173ac"/>
  <rect id="Rectangle_34" data-name="Rectangle 34" width="7" height="7" transform="translate(120 7) rotate(180)" fill="#ee3d8a"/>
  <rect id="Rectangle_35" data-name="Rectangle 35" width="8" height="7" transform="translate(128 7) rotate(180)" fill="#a3238e"/>
  <rect id="Rectangle_36" data-name="Rectangle 36" width="5" height="7" transform="translate(133 7) rotate(180)" fill="#6f2c91"/>
  <rect id="Rectangle_37" data-name="Rectangle 37" width="7" height="7" transform="translate(140 7) rotate(180)" fill="#d22333"/>
  <rect id="Rectangle_38" data-name="Rectangle 38" width="6" height="7" transform="translate(146 7) rotate(180)" fill="#f15a29"/>
  <rect id="Rectangle_39" data-name="Rectangle 39" width="7" height="7" transform="translate(153 7) rotate(180)" fill="#f7941d"/>
  <rect id="Rectangle_40" data-name="Rectangle 40" width="7" height="7" transform="translate(160 7) rotate(180)" fill="#fbb040"/>
  <rect id="Rectangle_41" data-name="Rectangle 41" width="7" height="7" transform="translate(220 7) rotate(180)" fill="#f173ac"/>
  <rect id="Rectangle_42" data-name="Rectangle 42" width="7" height="7" transform="translate(227 7) rotate(180)" fill="#ee3d8a"/>
  <rect id="Rectangle_43" data-name="Rectangle 43" width="6" height="7" transform="translate(233 7) rotate(180)" fill="#a3238e"/>
  <rect id="Rectangle_44" data-name="Rectangle 44" width="7" height="7" transform="translate(240 7) rotate(180)" fill="#6f2c91"/>
  <rect id="Rectangle_45" data-name="Rectangle 45" width="7" height="7" transform="translate(247 7) rotate(180)" fill="#d22333"/>
  <rect id="Rectangle_46" data-name="Rectangle 46" width="6" height="7" transform="translate(253 7) rotate(180)" fill="#f15a29"/>
  <rect id="Rectangle_47" data-name="Rectangle 47" width="8" height="7" transform="translate(261 7) rotate(180)" fill="#f7941d"/>
  <rect id="Rectangle_48" data-name="Rectangle 48" width="6" height="7" transform="translate(267 7) rotate(180)" fill="#fbb040"/>
</svg>
